<svg xmlns="http://www.w3.org/2000/svg" xmlns:xlink="http://www.w3.org/1999/xlink" width="1134" zoomAndPan="magnify" viewBox="0 0 850.07996 708.749996" height="945" preserveAspectRatio="xMidYMid meet" version="1.0"><defs><clipPath id="77cb4d1f37"><path d="M 201 375 L 532 375 L 532 462 L 201 462 Z M 201 375 " clip-rule="nonzero"/></clipPath><clipPath id="3ef2351df4"><path d="M 378.410156 611.394531 L 197.941406 454.449219 L 354.882812 273.980469 L 535.351562 430.925781 Z M 378.410156 611.394531 " clip-rule="nonzero"/></clipPath><clipPath id="563aa78763"><path d="M 198.007812 454.511719 L 378.476562 611.453125 L 535.421875 430.984375 L 354.953125 274.042969 Z M 198.007812 454.511719 " clip-rule="nonzero"/></clipPath><clipPath id="0284f88119"><path d="M 485 184 L 678 184 L 678 511 L 485 511 Z M 485 184 " clip-rule="nonzero"/></clipPath><clipPath id="6ad1528518"><path d="M 748.035156 254.765625 L 675.375 513.074219 L 417.070312 440.414062 L 489.730469 182.105469 Z M 748.035156 254.765625 " clip-rule="nonzero"/></clipPath><clipPath id="0865fee981"><path d="M 675.300781 513.335938 L 747.964844 255.03125 L 489.65625 182.367188 L 416.996094 440.675781 Z M 675.300781 513.335938 " clip-rule="nonzero"/></clipPath><clipPath id="b614b14b31"><path d="M 175 158 L 508 158 L 508 472 L 175 472 Z M 175 158 " clip-rule="nonzero"/></clipPath><clipPath id="4b358c73f5"><path d="M 498.273438 481.523438 L 175.660156 471.203125 L 185.984375 148.589844 L 508.59375 158.914062 Z M 498.273438 481.523438 " clip-rule="nonzero"/></clipPath><clipPath id="35fadc2f42"><path d="M 175.054688 471.183594 L 497.664062 481.503906 L 507.988281 158.894531 L 185.375 148.570312 Z M 175.054688 471.183594 " clip-rule="nonzero"/></clipPath></defs><g clip-path="url(#77cb4d1f37)"><g clip-path="url(#3ef2351df4)"><g clip-path="url(#563aa78763)"><path fill="#01a75c" d="M 517.839844 437.804688 C 517.496094 437.507812 517.183594 437.1875 516.898438 436.835938 C 516.609375 436.488281 516.355469 436.117188 516.132812 435.722656 C 515.90625 435.332031 515.71875 434.921875 515.5625 434.5 C 515.40625 434.074219 515.289062 433.640625 515.207031 433.195312 C 515.128906 432.75 515.082031 432.300781 515.078125 431.851562 C 515.070312 431.398438 515.105469 430.949219 515.175781 430.503906 C 515.246094 430.054688 515.351562 429.617188 515.496094 429.191406 C 515.640625 428.761719 515.820312 428.347656 516.03125 427.949219 C 513.351562 425.785156 510.621094 423.6875 507.839844 421.648438 C 505.058594 419.613281 502.234375 417.644531 499.359375 415.738281 C 496.488281 413.835938 493.574219 412 490.613281 410.230469 C 487.65625 408.464844 484.660156 406.765625 481.621094 405.140625 C 478.582031 403.511719 475.507812 401.957031 472.398438 400.472656 C 469.289062 398.988281 466.144531 397.578125 462.96875 396.242188 C 459.792969 394.90625 456.585938 393.644531 453.347656 392.457031 C 450.113281 391.269531 446.851562 390.160156 443.566406 389.128906 C 440.277344 388.09375 436.96875 387.136719 433.636719 386.257812 C 430.304688 385.378906 426.953125 384.578125 423.582031 383.855469 C 420.210938 383.132812 416.828125 382.492188 413.429688 381.925781 C 410.027344 381.363281 406.617188 380.878906 403.195312 380.476562 C 399.773438 380.070312 396.34375 379.746094 392.90625 379.503906 C 389.46875 379.261719 386.027344 379.097656 382.582031 379.015625 C 379.136719 378.933594 375.691406 378.929688 372.246094 379.007812 C 368.800781 379.085938 365.359375 379.246094 361.917969 379.488281 C 358.480469 379.726562 355.050781 380.046875 351.628906 380.445312 C 348.207031 380.847656 344.792969 381.328125 341.394531 381.886719 C 337.992188 382.445312 334.609375 383.085938 331.238281 383.804688 C 327.867188 384.523438 324.515625 385.320312 321.179688 386.195312 C 317.847656 387.070312 314.539062 388.023438 311.25 389.050781 C 307.960938 390.082031 304.695312 391.1875 301.460938 392.371094 C 298.222656 393.554688 295.015625 394.8125 291.835938 396.144531 C 288.660156 397.476562 285.515625 398.882812 282.402344 400.363281 C 279.289062 401.84375 276.214844 403.394531 273.175781 405.019531 C 270.136719 406.644531 267.136719 408.339844 264.175781 410.101562 C 261.214844 411.867188 258.296875 413.699219 255.421875 415.601562 C 252.546875 417.5 249.71875 419.46875 246.9375 421.5 C 244.15625 423.535156 241.421875 425.632812 238.738281 427.792969 C 236.050781 429.953125 233.417969 432.175781 230.839844 434.460938 C 228.257812 436.746094 225.734375 439.089844 223.261719 441.492188 C 220.792969 443.894531 218.378906 446.355469 216.023438 448.867188 C 216.222656 449.128906 216.40625 449.402344 216.570312 449.683594 C 216.738281 449.96875 216.886719 450.257812 217.015625 450.558594 C 217.144531 450.859375 217.257812 451.167969 217.347656 451.484375 C 217.441406 451.796875 217.515625 452.117188 217.566406 452.441406 C 217.621094 452.765625 217.652344 453.089844 217.667969 453.417969 C 217.679688 453.746094 217.671875 454.074219 217.644531 454.398438 C 217.621094 454.726562 217.574219 455.050781 217.507812 455.371094 C 217.4375 455.691406 217.351562 456.007812 217.25 456.320312 C 217.144531 456.628906 217.019531 456.933594 216.875 457.226562 C 216.734375 457.523438 216.574219 457.808594 216.394531 458.085938 C 216.21875 458.359375 216.023438 458.625 215.816406 458.875 C 215.605469 459.128906 215.382812 459.367188 215.140625 459.589844 C 214.902344 459.816406 214.652344 460.023438 214.386719 460.21875 C 214.121094 460.410156 213.847656 460.589844 213.558594 460.75 C 213.273438 460.90625 212.976562 461.050781 212.675781 461.171875 C 212.371094 461.296875 212.0625 461.402344 211.742188 461.488281 C 211.425781 461.574219 211.105469 461.640625 210.78125 461.683594 C 210.457031 461.730469 210.132812 461.757812 209.804688 461.765625 C 209.476562 461.769531 209.148438 461.757812 208.820312 461.722656 C 208.496094 461.6875 208.171875 461.636719 207.851562 461.5625 C 207.535156 461.488281 207.21875 461.394531 206.910156 461.285156 C 206.601562 461.171875 206.304688 461.039062 206.011719 460.890625 C 205.71875 460.742188 205.4375 460.578125 205.164062 460.394531 C 204.894531 460.210938 204.632812 460.011719 204.386719 459.796875 C 204.136719 459.582031 203.90625 459.351562 203.683594 459.109375 C 203.464844 458.863281 203.261719 458.609375 203.074219 458.339844 C 202.886719 458.070312 202.714844 457.789062 202.5625 457.5 C 202.410156 457.210938 202.273438 456.914062 202.15625 456.605469 C 202.039062 456.300781 201.941406 455.988281 201.863281 455.667969 C 201.785156 455.351562 201.726562 455.03125 201.683594 454.703125 C 201.644531 454.378906 201.625 454.050781 201.628906 453.722656 C 201.628906 453.394531 201.648438 453.070312 201.691406 452.742188 C 201.730469 452.417969 201.792969 452.097656 201.871094 451.777344 C 201.953125 451.460938 202.050781 451.148438 202.167969 450.84375 C 202.289062 450.539062 202.425781 450.238281 202.578125 449.949219 C 202.734375 449.660156 202.90625 449.382812 203.097656 449.117188 C 203.285156 448.847656 203.488281 448.59375 203.710938 448.347656 C 203.929688 448.105469 204.164062 447.878906 204.414062 447.664062 C 204.664062 447.449219 204.921875 447.253906 205.195312 447.070312 C 205.46875 446.886719 205.75 446.722656 206.042969 446.574219 C 206.335938 446.429688 206.636719 446.300781 206.945312 446.1875 C 207.253906 446.078125 207.570312 445.988281 207.890625 445.914062 C 208.210938 445.84375 208.53125 445.789062 208.859375 445.757812 C 209.1875 445.726562 209.511719 445.714844 209.839844 445.722656 C 210.167969 445.730469 210.496094 445.757812 210.820312 445.804688 C 211.144531 445.851562 211.464844 445.921875 211.78125 446.007812 C 212.097656 446.09375 212.40625 446.199219 212.707031 446.324219 C 213.011719 446.449219 213.304688 446.59375 213.59375 446.753906 C 215.980469 444.199219 218.429688 441.699219 220.9375 439.261719 C 223.445312 436.820312 226.007812 434.4375 228.625 432.117188 C 231.246094 429.796875 233.917969 427.539062 236.640625 425.34375 C 239.363281 423.148438 242.140625 421.015625 244.964844 418.949219 C 247.789062 416.882812 250.660156 414.886719 253.574219 412.953125 C 256.492188 411.023438 259.457031 409.160156 262.460938 407.367188 C 265.464844 405.574219 268.511719 403.855469 271.597656 402.203125 C 274.679688 400.554688 277.804688 398.976562 280.964844 397.472656 C 284.121094 395.96875 287.316406 394.542969 290.542969 393.1875 C 293.769531 391.832031 297.023438 390.554688 300.3125 389.351562 C 303.597656 388.152344 306.910156 387.027344 310.25 385.980469 C 313.585938 384.933594 316.949219 383.964844 320.332031 383.078125 C 323.71875 382.1875 327.121094 381.378906 330.542969 380.648438 C 333.964844 379.917969 337.402344 379.269531 340.855469 378.703125 C 344.308594 378.132812 347.769531 377.644531 351.246094 377.238281 C 354.722656 376.832031 358.203125 376.507812 361.695312 376.261719 C 365.183594 376.019531 368.679688 375.859375 372.179688 375.777344 C 375.675781 375.699219 379.175781 375.703125 382.671875 375.785156 C 386.171875 375.871094 389.664062 376.035156 393.15625 376.285156 C 396.644531 376.53125 400.128906 376.859375 403.601562 377.269531 C 407.078125 377.683594 410.539062 378.175781 413.992188 378.746094 C 417.445312 379.320312 420.878906 379.972656 424.300781 380.707031 C 427.722656 381.441406 431.125 382.253906 434.507812 383.148438 C 437.890625 384.042969 441.25 385.015625 444.589844 386.066406 C 447.925781 387.117188 451.238281 388.246094 454.523438 389.449219 C 457.808594 390.65625 461.0625 391.9375 464.285156 393.296875 C 467.511719 394.65625 470.703125 396.085938 473.859375 397.59375 C 477.015625 399.101562 480.136719 400.683594 483.222656 402.339844 C 486.304688 403.992188 489.347656 405.71875 492.351562 407.511719 C 495.351562 409.308594 498.3125 411.175781 501.226562 413.109375 C 504.140625 415.046875 507.011719 417.046875 509.832031 419.117188 C 512.652344 421.1875 515.425781 423.320312 518.148438 425.519531 C 518.542969 425.199219 518.96875 424.921875 519.417969 424.679688 C 519.871094 424.441406 520.339844 424.246094 520.828125 424.097656 C 521.3125 423.945312 521.8125 423.84375 522.320312 423.785156 C 522.824219 423.730469 523.335938 423.722656 523.84375 423.765625 C 524.351562 423.804688 524.851562 423.894531 525.34375 424.027344 C 525.835938 424.164062 526.308594 424.34375 526.769531 424.570312 C 527.226562 424.796875 527.65625 425.066406 528.0625 425.375 C 528.472656 425.679688 528.84375 426.023438 529.1875 426.40625 C 529.527344 426.785156 529.832031 427.191406 530.09375 427.628906 C 530.359375 428.066406 530.578125 428.523438 530.753906 429 C 530.933594 429.480469 531.0625 429.972656 531.144531 430.476562 C 531.230469 430.976562 531.265625 431.484375 531.253906 431.996094 C 531.238281 432.503906 531.179688 433.011719 531.070312 433.507812 C 530.960938 434.007812 530.804688 434.492188 530.605469 434.960938 C 530.40625 435.429688 530.164062 435.875 529.875 436.296875 C 529.589844 436.722656 529.269531 437.113281 528.910156 437.476562 C 528.546875 437.835938 528.15625 438.160156 527.734375 438.449219 C 527.316406 438.738281 526.871094 438.980469 526.402344 439.183594 C 525.933594 439.386719 525.449219 439.542969 524.953125 439.65625 C 524.453125 439.765625 523.949219 439.828125 523.4375 439.84375 C 522.929688 439.859375 522.421875 439.828125 521.917969 439.746094 C 521.414062 439.664062 520.921875 439.535156 520.445312 439.363281 C 519.964844 439.1875 519.503906 438.96875 519.066406 438.707031 C 518.628906 438.445312 518.21875 438.144531 517.839844 437.804688 Z M 517.839844 437.804688 " fill-opacity="1" fill-rule="nonzero"/></g></g></g><g clip-path="url(#0284f88119)"><g clip-path="url(#6ad1528518)"><g clip-path="url(#0865fee981)"><path fill="#2c9600" d="M 504.765625 196.488281 C 504.628906 196.976562 504.453125 197.453125 504.234375 197.910156 C 504.019531 198.371094 503.765625 198.808594 503.472656 199.222656 C 503.179688 199.640625 502.859375 200.027344 502.5 200.386719 C 502.144531 200.75 501.757812 201.078125 501.347656 201.375 C 500.933594 201.671875 500.5 201.929688 500.042969 202.152344 C 499.585938 202.375 499.117188 202.558594 498.628906 202.703125 C 498.140625 202.84375 497.644531 202.945312 497.140625 203.003906 C 496.636719 203.066406 496.132812 203.082031 495.625 203.054688 C 494.714844 206.820312 493.890625 210.601562 493.160156 214.402344 C 492.425781 218.203125 491.78125 222.019531 491.226562 225.851562 C 490.671875 229.683594 490.207031 233.527344 489.832031 237.382812 C 489.457031 241.234375 489.171875 245.097656 488.976562 248.960938 C 488.78125 252.828125 488.675781 256.699219 488.664062 260.570312 C 488.652344 264.441406 488.726562 268.3125 488.894531 272.179688 C 489.0625 276.050781 489.320312 279.910156 489.667969 283.769531 C 490.019531 287.625 490.457031 291.46875 490.984375 295.304688 C 491.511719 299.140625 492.128906 302.964844 492.835938 306.769531 C 493.546875 310.578125 494.339844 314.363281 495.226562 318.132812 C 496.109375 321.902344 497.082031 325.652344 498.140625 329.375 C 499.203125 333.097656 500.347656 336.796875 501.582031 340.464844 C 502.8125 344.136719 504.132812 347.777344 505.535156 351.386719 C 506.9375 354.992188 508.425781 358.566406 509.996094 362.105469 C 511.566406 365.644531 513.21875 369.148438 514.953125 372.609375 C 516.6875 376.070312 518.5 379.488281 520.394531 382.867188 C 522.289062 386.242188 524.261719 389.574219 526.308594 392.859375 C 528.359375 396.144531 530.484375 399.378906 532.6875 402.5625 C 534.890625 405.75 537.164062 408.878906 539.511719 411.960938 C 541.859375 415.039062 544.277344 418.058594 546.769531 421.027344 C 549.257812 423.992188 551.816406 426.898438 554.441406 429.742188 C 557.066406 432.589844 559.757812 435.371094 562.511719 438.09375 C 565.265625 440.8125 568.085938 443.464844 570.964844 446.054688 C 573.84375 448.640625 576.785156 451.160156 579.78125 453.613281 C 582.777344 456.0625 585.832031 458.441406 588.941406 460.75 C 592.050781 463.058594 595.210938 465.292969 598.425781 467.449219 C 601.636719 469.609375 604.902344 471.695312 608.210938 473.703125 C 611.523438 475.707031 614.878906 477.636719 618.28125 479.488281 C 621.683594 481.335938 625.125 483.105469 628.609375 484.796875 C 632.09375 486.484375 635.613281 488.089844 639.171875 489.617188 C 642.734375 491.140625 646.324219 492.578125 649.953125 493.9375 C 653.578125 495.292969 657.234375 496.5625 660.921875 497.746094 C 661.089844 497.417969 661.277344 497.105469 661.488281 496.800781 C 661.695312 496.496094 661.921875 496.203125 662.164062 495.929688 C 662.40625 495.652344 662.667969 495.390625 662.941406 495.144531 C 663.214844 494.902344 663.507812 494.671875 663.808594 494.464844 C 664.113281 494.253906 664.425781 494.066406 664.753906 493.894531 C 665.078125 493.722656 665.414062 493.574219 665.761719 493.441406 C 666.105469 493.3125 666.457031 493.207031 666.816406 493.117188 C 667.171875 493.03125 667.535156 492.96875 667.902344 492.925781 C 668.265625 492.882812 668.632812 492.863281 669.003906 492.867188 C 669.371094 492.871094 669.738281 492.894531 670.105469 492.945312 C 670.46875 492.992188 670.832031 493.0625 671.1875 493.152344 C 671.542969 493.246094 671.894531 493.359375 672.234375 493.496094 C 672.578125 493.628906 672.914062 493.785156 673.234375 493.960938 C 673.558594 494.136719 673.871094 494.332031 674.171875 494.546875 C 674.472656 494.761719 674.757812 494.992188 675.027344 495.242188 C 675.300781 495.488281 675.554688 495.753906 675.792969 496.035156 C 676.03125 496.316406 676.253906 496.609375 676.457031 496.917969 C 676.660156 497.226562 676.84375 497.542969 677.007812 497.875 C 677.171875 498.203125 677.3125 498.542969 677.433594 498.890625 C 677.558594 499.238281 677.660156 499.589844 677.738281 499.953125 C 677.816406 500.3125 677.871094 500.675781 677.90625 501.042969 C 677.941406 501.410156 677.953125 501.777344 677.941406 502.144531 C 677.929688 502.511719 677.898438 502.878906 677.84375 503.242188 C 677.785156 503.609375 677.707031 503.96875 677.609375 504.320312 C 677.507812 504.675781 677.386719 505.023438 677.246094 505.363281 C 677.105469 505.703125 676.941406 506.03125 676.757812 506.351562 C 676.574219 506.671875 676.375 506.980469 676.152344 507.277344 C 675.933594 507.570312 675.695312 507.851562 675.441406 508.117188 C 675.183594 508.382812 674.914062 508.632812 674.628906 508.867188 C 674.34375 509.097656 674.046875 509.3125 673.734375 509.507812 C 673.421875 509.707031 673.097656 509.882812 672.765625 510.039062 C 672.433594 510.195312 672.089844 510.332031 671.738281 510.445312 C 671.390625 510.5625 671.035156 510.652344 670.671875 510.726562 C 670.3125 510.796875 669.945312 510.84375 669.578125 510.871094 C 669.210938 510.898438 668.84375 510.902344 668.476562 510.882812 C 668.109375 510.863281 667.742188 510.824219 667.378906 510.761719 C 667.015625 510.695312 666.660156 510.609375 666.304688 510.503906 C 665.953125 510.394531 665.609375 510.269531 665.273438 510.117188 C 664.9375 509.96875 664.609375 509.800781 664.292969 509.609375 C 663.976562 509.417969 663.675781 509.210938 663.382812 508.984375 C 663.09375 508.757812 662.816406 508.515625 662.558594 508.253906 C 662.296875 507.992188 662.054688 507.71875 661.828125 507.425781 C 661.601562 507.136719 661.390625 506.832031 661.203125 506.519531 C 661.011719 506.203125 660.84375 505.875 660.695312 505.539062 C 660.542969 505.203125 660.414062 504.855469 660.308594 504.503906 C 660.203125 504.152344 660.117188 503.792969 660.050781 503.433594 C 659.988281 503.070312 659.949219 502.703125 659.929688 502.335938 C 659.910156 501.96875 659.914062 501.597656 659.941406 501.230469 C 656.199219 500.03125 652.484375 498.742188 648.800781 497.371094 C 645.117188 495.996094 641.46875 494.535156 637.855469 492.988281 C 634.242188 491.445312 630.664062 489.816406 627.125 488.101562 C 623.585938 486.386719 620.089844 484.59375 616.636719 482.71875 C 613.183594 480.839844 609.773438 478.882812 606.410156 476.847656 C 603.046875 474.8125 599.734375 472.695312 596.472656 470.503906 C 593.207031 468.3125 589.996094 466.046875 586.839844 463.707031 C 583.679688 461.363281 580.582031 458.949219 577.535156 456.460938 C 574.492188 453.972656 571.507812 451.417969 568.582031 448.789062 C 565.65625 446.164062 562.796875 443.46875 559.996094 440.707031 C 557.199219 437.949219 554.46875 435.121094 551.800781 432.234375 C 549.132812 429.34375 546.539062 426.394531 544.007812 423.382812 C 541.480469 420.375 539.023438 417.304688 536.640625 414.179688 C 534.257812 411.054688 531.945312 407.875 529.710938 404.640625 C 527.476562 401.40625 525.316406 398.121094 523.234375 394.789062 C 521.152344 391.453125 519.152344 388.070312 517.226562 384.640625 C 515.304688 381.214844 513.464844 377.742188 511.703125 374.226562 C 509.941406 370.710938 508.265625 367.15625 506.671875 363.5625 C 505.078125 359.96875 503.566406 356.339844 502.144531 352.675781 C 500.71875 349.011719 499.382812 345.316406 498.128906 341.589844 C 496.878906 337.863281 495.714844 334.109375 494.640625 330.328125 C 493.566406 326.546875 492.578125 322.742188 491.683594 318.914062 C 490.785156 315.085938 489.976562 311.242188 489.261719 307.375 C 488.542969 303.511719 487.917969 299.628906 487.382812 295.734375 C 486.847656 291.839844 486.402344 287.9375 486.050781 284.019531 C 485.699219 280.105469 485.4375 276.183594 485.269531 272.257812 C 485.101562 268.328125 485.023438 264.398438 485.039062 260.46875 C 485.054688 256.535156 485.164062 252.609375 485.363281 248.683594 C 485.5625 244.757812 485.851562 240.835938 486.234375 236.925781 C 486.617188 233.011719 487.09375 229.109375 487.660156 225.21875 C 488.226562 221.328125 488.882812 217.453125 489.628906 213.59375 C 490.375 209.734375 491.210938 205.894531 492.140625 202.074219 C 491.625 201.824219 491.136719 201.527344 490.675781 201.1875 C 490.214844 200.84375 489.792969 200.460938 489.40625 200.035156 C 489.019531 199.613281 488.675781 199.15625 488.375 198.667969 C 488.074219 198.179688 487.824219 197.667969 487.621094 197.132812 C 487.417969 196.597656 487.269531 196.046875 487.167969 195.480469 C 487.070312 194.914062 487.027344 194.347656 487.039062 193.773438 C 487.046875 193.199219 487.109375 192.632812 487.230469 192.070312 C 487.347656 191.511719 487.515625 190.964844 487.738281 190.4375 C 487.960938 189.90625 488.226562 189.40625 488.546875 188.925781 C 488.863281 188.449219 489.222656 188.003906 489.621094 187.597656 C 490.023438 187.1875 490.460938 186.820312 490.929688 186.492188 C 491.402344 186.164062 491.902344 185.886719 492.425781 185.652344 C 492.949219 185.421875 493.492188 185.242188 494.050781 185.113281 C 494.609375 184.984375 495.171875 184.910156 495.746094 184.886719 C 496.320312 184.867188 496.890625 184.898438 497.457031 184.984375 C 498.023438 185.070312 498.578125 185.210938 499.117188 185.402344 C 499.65625 185.59375 500.175781 185.835938 500.667969 186.125 C 501.164062 186.417969 501.625 186.75 502.058594 187.128906 C 502.488281 187.507812 502.878906 187.921875 503.230469 188.375 C 503.582031 188.828125 503.890625 189.308594 504.148438 189.820312 C 504.410156 190.332031 504.621094 190.863281 504.777344 191.414062 C 504.9375 191.964844 505.042969 192.523438 505.097656 193.09375 C 505.152344 193.667969 505.148438 194.238281 505.09375 194.808594 C 505.039062 195.378906 504.929688 195.9375 504.765625 196.488281 Z M 504.765625 196.488281 " fill-opacity="1" fill-rule="nonzero"/></g></g></g><g clip-path="url(#b614b14b31)"><g clip-path="url(#4b358c73f5)"><g clip-path="url(#35fadc2f42)"><path fill="#01a75c" d="M 496.132812 180.363281 C 495.523438 180.34375 494.917969 180.273438 494.320312 180.152344 C 493.71875 180.03125 493.136719 179.859375 492.566406 179.640625 C 491.996094 179.417969 491.449219 179.152344 490.921875 178.839844 C 490.398438 178.527344 489.902344 178.171875 489.4375 177.777344 C 488.972656 177.378906 488.542969 176.945312 488.152344 176.476562 C 487.757812 176.007812 487.410156 175.511719 487.101562 174.984375 C 486.792969 174.453125 486.53125 173.90625 486.316406 173.332031 C 486.101562 172.761719 485.9375 172.175781 485.820312 171.574219 C 481.160156 171.597656 476.5 171.726562 471.84375 171.96875 C 467.1875 172.207031 462.542969 172.558594 457.902344 173.015625 C 453.265625 173.472656 448.636719 174.039062 444.027344 174.714844 C 439.414062 175.390625 434.820312 176.171875 430.242188 177.058594 C 425.667969 177.949219 421.113281 178.945312 416.585938 180.046875 C 412.054688 181.148438 407.554688 182.359375 403.082031 183.671875 C 398.609375 184.984375 394.171875 186.402344 389.765625 187.921875 C 385.355469 189.441406 380.988281 191.066406 376.660156 192.792969 C 372.328125 194.515625 368.039062 196.34375 363.792969 198.269531 C 359.550781 200.195312 355.351562 202.21875 351.203125 204.339844 C 347.050781 206.460938 342.953125 208.679688 338.90625 210.996094 C 334.859375 213.308594 330.871094 215.714844 326.933594 218.21875 C 323 220.71875 319.128906 223.308594 315.316406 225.992188 C 311.503906 228.671875 307.753906 231.445312 304.070312 234.300781 C 300.390625 237.160156 296.773438 240.101562 293.230469 243.128906 C 289.683594 246.152344 286.210938 249.261719 282.8125 252.449219 C 279.410156 255.640625 276.089844 258.90625 272.839844 262.25 C 269.59375 265.597656 266.425781 269.015625 263.339844 272.507812 C 260.253906 276 257.25 279.5625 254.328125 283.195312 C 251.410156 286.832031 248.574219 290.53125 245.828125 294.296875 C 243.082031 298.0625 240.421875 301.890625 237.855469 305.78125 C 235.285156 309.671875 232.8125 313.621094 230.425781 317.625 C 228.042969 321.632812 225.757812 325.691406 223.5625 329.804688 C 221.371094 333.917969 219.273438 338.082031 217.273438 342.292969 C 215.277344 346.503906 213.378906 350.757812 211.578125 355.058594 C 209.777344 359.359375 208.082031 363.699219 206.484375 368.078125 C 204.886719 372.457031 203.394531 376.875 202.003906 381.324219 C 200.617188 385.773438 199.332031 390.253906 198.152344 394.761719 C 196.96875 399.269531 195.898438 403.804688 194.929688 408.367188 C 193.960938 412.925781 193.101562 417.507812 192.347656 422.105469 C 191.59375 426.707031 190.949219 431.320312 190.410156 435.953125 C 189.871094 440.582031 189.441406 445.222656 189.121094 449.875 C 189.554688 449.976562 189.976562 450.105469 190.394531 450.261719 C 190.808594 450.414062 191.214844 450.59375 191.609375 450.800781 C 192 451.003906 192.378906 451.230469 192.746094 451.484375 C 193.113281 451.734375 193.460938 452.007812 193.792969 452.300781 C 194.125 452.59375 194.4375 452.90625 194.734375 453.238281 C 195.027344 453.570312 195.300781 453.921875 195.550781 454.285156 C 195.800781 454.652344 196.03125 455.03125 196.234375 455.425781 C 196.4375 455.820312 196.617188 456.222656 196.773438 456.640625 C 196.929688 457.054688 197.058594 457.476562 197.160156 457.910156 C 197.261719 458.339844 197.339844 458.777344 197.390625 459.21875 C 197.4375 459.660156 197.460938 460.101562 197.457031 460.542969 C 197.453125 460.988281 197.417969 461.429688 197.359375 461.871094 C 197.300781 462.308594 197.214844 462.742188 197.105469 463.171875 C 196.992188 463.601562 196.855469 464.023438 196.691406 464.433594 C 196.527344 464.847656 196.339844 465.25 196.125 465.636719 C 195.914062 466.027344 195.675781 466.402344 195.417969 466.761719 C 195.160156 467.121094 194.878906 467.464844 194.578125 467.789062 C 194.277344 468.117188 193.957031 468.421875 193.621094 468.710938 C 193.28125 468.996094 192.925781 469.261719 192.554688 469.503906 C 192.183594 469.746094 191.800781 469.96875 191.402344 470.164062 C 191.003906 470.359375 190.597656 470.53125 190.175781 470.675781 C 189.757812 470.824219 189.332031 470.941406 188.898438 471.035156 C 188.464844 471.128906 188.027344 471.199219 187.585938 471.238281 C 187.144531 471.277344 186.699219 471.289062 186.257812 471.277344 C 185.8125 471.261719 185.375 471.222656 184.933594 471.152344 C 184.496094 471.085938 184.0625 470.988281 183.636719 470.867188 C 183.210938 470.746094 182.792969 470.601562 182.382812 470.425781 C 181.976562 470.253906 181.578125 470.058594 181.195312 469.835938 C 180.808594 469.617188 180.441406 469.371094 180.085938 469.105469 C 179.730469 468.839844 179.394531 468.550781 179.074219 468.246094 C 178.753906 467.9375 178.457031 467.609375 178.175781 467.265625 C 177.898438 466.921875 177.640625 466.5625 177.40625 466.183594 C 177.167969 465.808594 176.957031 465.421875 176.769531 465.019531 C 176.582031 464.617188 176.421875 464.203125 176.285156 463.78125 C 176.144531 463.359375 176.035156 462.929688 175.953125 462.496094 C 175.867188 462.0625 175.808594 461.621094 175.777344 461.179688 C 175.746094 460.738281 175.746094 460.292969 175.769531 459.851562 C 175.792969 459.40625 175.84375 458.96875 175.921875 458.53125 C 175.996094 458.09375 176.101562 457.664062 176.230469 457.238281 C 176.363281 456.816406 176.519531 456.402344 176.699219 455.996094 C 176.878906 455.59375 177.085938 455.199219 177.316406 454.820312 C 177.542969 454.441406 177.796875 454.074219 178.070312 453.726562 C 178.34375 453.378906 178.636719 453.046875 178.953125 452.734375 C 179.265625 452.421875 179.601562 452.128906 179.949219 451.855469 C 180.300781 451.585938 180.667969 451.335938 181.046875 451.109375 C 181.429688 450.882812 181.820312 450.679688 182.226562 450.5 C 182.632812 450.320312 183.050781 450.167969 183.472656 450.039062 C 183.898438 449.910156 184.328125 449.808594 184.765625 449.734375 C 185.089844 445.011719 185.523438 440.300781 186.066406 435.597656 C 186.609375 430.898438 187.261719 426.210938 188.023438 421.539062 C 188.785156 416.867188 189.65625 412.21875 190.636719 407.585938 C 191.617188 402.957031 192.703125 398.351562 193.902344 393.773438 C 195.097656 389.195312 196.398438 384.644531 197.808594 380.125 C 199.21875 375.609375 200.730469 371.125 202.351562 366.675781 C 203.96875 362.230469 205.691406 357.824219 207.515625 353.457031 C 209.34375 349.089844 211.269531 344.765625 213.296875 340.492188 C 215.324219 336.214844 217.449219 331.988281 219.675781 327.8125 C 221.902344 323.632812 224.226562 319.511719 226.644531 315.441406 C 229.0625 311.375 231.574219 307.367188 234.183594 303.414062 C 236.789062 299.464844 239.484375 295.578125 242.273438 291.753906 C 245.0625 287.929688 247.941406 284.171875 250.90625 280.480469 C 253.871094 276.792969 256.917969 273.175781 260.050781 269.628906 C 263.1875 266.082031 266.402344 262.609375 269.699219 259.214844 C 272.996094 255.816406 276.371094 252.5 279.820312 249.261719 C 283.273438 246.023438 286.800781 242.871094 290.398438 239.796875 C 294 236.722656 297.667969 233.738281 301.410156 230.835938 C 305.148438 227.933594 308.953125 225.125 312.824219 222.402344 C 316.695312 219.679688 320.628906 217.046875 324.625 214.507812 C 328.621094 211.96875 332.671875 209.527344 336.78125 207.179688 C 340.890625 204.828125 345.050781 202.578125 349.265625 200.425781 C 353.480469 198.269531 357.742188 196.214844 362.054688 194.261719 C 366.363281 192.308594 370.71875 190.457031 375.117188 188.707031 C 379.511719 186.957031 383.949219 185.308594 388.421875 183.765625 C 392.898438 182.222656 397.40625 180.789062 401.949219 179.457031 C 406.488281 178.125 411.058594 176.898438 415.660156 175.78125 C 420.257812 174.664062 424.882812 173.65625 429.527344 172.753906 C 434.175781 171.855469 438.839844 171.0625 443.523438 170.382812 C 448.207031 169.699219 452.902344 169.125 457.613281 168.664062 C 462.324219 168.203125 467.042969 167.851562 471.769531 167.609375 C 476.496094 167.367188 481.226562 167.238281 485.960938 167.21875 C 486.101562 166.542969 486.308594 165.886719 486.574219 165.25 C 486.84375 164.613281 487.167969 164.007812 487.550781 163.433594 C 487.933594 162.859375 488.367188 162.328125 488.851562 161.835938 C 489.335938 161.34375 489.863281 160.902344 490.429688 160.507812 C 491 160.117188 491.597656 159.78125 492.230469 159.503906 C 492.863281 159.226562 493.515625 159.011719 494.1875 158.855469 C 494.859375 158.703125 495.542969 158.613281 496.234375 158.589844 C 496.921875 158.566406 497.609375 158.605469 498.289062 158.710938 C 498.972656 158.816406 499.636719 158.988281 500.289062 159.21875 C 500.9375 159.453125 501.5625 159.742188 502.15625 160.09375 C 502.75 160.445312 503.304688 160.847656 503.824219 161.304688 C 504.339844 161.761719 504.8125 162.261719 505.234375 162.808594 C 505.65625 163.355469 506.023438 163.933594 506.335938 164.550781 C 506.648438 165.167969 506.898438 165.804688 507.089844 166.46875 C 507.28125 167.132812 507.40625 167.808594 507.46875 168.496094 C 507.53125 169.183594 507.527344 169.871094 507.460938 170.558594 C 507.390625 171.246094 507.257812 171.917969 507.0625 172.582031 C 506.867188 173.242188 506.609375 173.878906 506.292969 174.492188 C 505.972656 175.105469 505.601562 175.683594 505.171875 176.226562 C 504.746094 176.765625 504.273438 177.261719 503.75 177.714844 C 503.226562 178.167969 502.667969 178.566406 502.070312 178.910156 C 501.472656 179.257812 500.847656 179.542969 500.195312 179.769531 C 499.542969 179.996094 498.875 180.160156 498.195312 180.257812 C 497.511719 180.359375 496.824219 180.394531 496.132812 180.363281 Z M 496.132812 180.363281 " fill-opacity="1" fill-rule="nonzero"/></g></g></g></svg>